<svg xmlns:xlink="http://www.w3.org/1999/xlink" xmlns="http://www.w3.org/2000/svg" fill="#ff9800" viewBox="0 0 24 24" width="14" height="14"><defs><g id="ui-icon-close" viewBox="0 0 24 24"><path d="M13.41 12l6.3-6.29a1 1 0 1 0-1.42-1.42L12 10.59 5.71 4.29A1 1 0 0 0 4.29 5.71L10.59 12l-6.3 6.29a1 1 0 0 0 0 1.42 1 1 0 0 0 1.42 0L12 13.41l6.29 6.3a1 1 0 0 0 1.42 0 1 1 0 0 0 0-1.42Z"></path></g></defs><g><path d="M13.41 12l6.3-6.29a1 1 0 1 0-1.42-1.42L12 10.59 5.71 4.29A1 1 0 0 0 4.29 5.71L10.59 12l-6.3 6.29a1 1 0 0 0 0 1.42 1 1 0 0 0 1.42 0L12 13.41l6.29 6.3a1 1 0 0 0 1.42 0 1 1 0 0 0 0-1.42Z"></path></g></svg>